# xmcd
#
# Track frame offsets:
#	150
#	5570
#	25210
#	66210
#	73475
#	99135
#	120450
#	155505
#	187165
#	200055
#	232445
#	255975
#	280275
#
# Disc length: 3906 seconds
#
# Revision: 1
# Processed by: cddbd v1.5.1PL2 Copyright (c) Steve Scherf et al.
# Submitted via: EasyCDDAExtractor 9.0.0.1
#
DISCID=c10f400d
DTITLE=Manowar - Palatsport Scandicci Florence 29-04-89
DYEAR=1989
DGENRE=Hard Rock
TTITLE0=Intro
TTITLE1=Manowar
TTITLE2=Fighting The World
TTITLE3=Guitar Solo
TTITLE4=KingsOf Metal
TTITLE5=Sign Of The Hammer
TTITLE6=Heart Of Steel
TTITLE7=Bass Solo
TTITLE8=Sting Of The Bumble Bee
TTITLE9=Hail And Kill
TTITLE10=Kill With Power
TTITLE11=Wheels Of Fire
TTITLE12=Battle Hymns
EXTD=
EXTT0=
EXTT1=
EXTT2=
EXTT3=
EXTT4=
EXTT5=
EXTT6=
EXTT7=
EXTT8=
EXTT9=
EXTT10=
EXTT11=
EXTT12=
PLAYORDER=
